<svg xmlns="http://www.w3.org/2000/svg" xmlns:xlink="http://www.w3.org/1999/xlink" xmlns:serif="http://www.serif.com/" viewBox="0 0 32 40" version="1.1" xml:space="preserve" style="" x="0px" y="0px" fill-rule="evenodd" clip-rule="evenodd" stroke-linejoin="round" stroke-miterlimit="2"><g transform="matrix(1,0,0,1,0,-192)"><path d="M28,218C28,214.134 24.866,211 21,211C17.892,211 14.108,211 11,211C7.134,211 4,214.134 4,218C4,218.767 4,219.469 4,220C4,221.105 4.895,222 6,222L26,222C27.105,222 28,221.105 28,220L28,218ZM16,194C11.861,194 8.5,197.361 8.5,201.5C8.5,205.639 11.861,209 16,209C20.139,209 23.5,205.639 23.5,201.5C23.5,197.361 20.139,194 16,194Z"/></g><text x="0" y="47" fill="#000000" font-size="5px" font-weight="bold" font-family="'Helvetica Neue', Helvetica, Arial-Unicode, Arial, Sans-serif">Created by Putri Afifah Octaviani</text><text x="0" y="52" fill="#000000" font-size="5px" font-weight="bold" font-family="'Helvetica Neue', Helvetica, Arial-Unicode, Arial, Sans-serif">from the Noun Project</text></svg>